<svg width="10" height="13" viewBox="0 0 10 13" fill="none" xmlns="http://www.w3.org/2000/svg">
<path d="M5.00388 -5.20152e-05C5.20279 -5.20326e-05 5.39356 0.078966 5.53421 0.219618C5.67486 0.360271 5.75388 0.551036 5.75388 0.749948L5.75388 9.53695L8.69488 6.24995C8.82784 6.10302 9.01355 6.01469 9.21143 6.00424C9.40931 5.99379 9.60329 6.06208 9.75098 6.19419C9.89868 6.32629 9.98809 6.51148 9.99969 6.7093C10.0113 6.90712 9.94413 7.10149 9.81288 7.24995L5.56288 11.9999C5.49253 12.0788 5.40632 12.1418 5.3099 12.185C5.21348 12.2282 5.10903 12.2505 5.00338 12.2505C4.89774 12.2505 4.79328 12.2282 4.69686 12.185C4.60044 12.1418 4.51423 12.0788 4.44388 11.9999L0.193881 7.24995C0.127547 7.17665 0.0763587 7.09096 0.0432601 6.99781C0.0101615 6.90465 -0.00419425 6.80588 0.00101804 6.70716C0.00623033 6.60844 0.0309079 6.51172 0.0736317 6.42257C0.116356 6.33342 0.176283 6.2536 0.249966 6.18769C0.32365 6.12178 0.409636 6.07109 0.50298 6.03854C0.596323 6.00598 0.695182 5.9922 0.79387 5.99798C0.892559 6.00377 0.98913 6.02901 1.07803 6.07225C1.16693 6.11549 1.2464 6.17588 1.31188 6.24995L4.25388 9.53695L4.25388 0.749948C4.25388 0.551036 4.3329 0.360271 4.47355 0.219618C4.6142 0.078966 4.80497 -5.19978e-05 5.00388 -5.20152e-05Z" fill="#0505AF"/>
</svg>
