<?xml version="1.0" encoding="UTF-8"?>
<svg id="Layer_3" data-name="Layer 3" xmlns="http://www.w3.org/2000/svg" width="126.18" height="165.69" viewBox="0 0 126.18 165.69">
  <defs>
    <style>
      .cls-1 {
        fill: none;
        stroke: #221f20;
        stroke-miterlimit: 10;
        stroke-width: .5px;
      }
    </style>
  </defs>
  <g>
    <path class="cls-1" d="m39.5,13.46c.01,3.23.02,6.45.04,9.68.03,7.88.06,15.77.09,23.65.16,37.01.31,74.01.47,111.02,13.11.08,26.22.16,39.33.25v-79.37c0-1.14-.01-2.82.02-4.86.03-2.65.04-3.97.13-4.65.15-1.22.68-3.07,2.56-5.25"/>
    <path class="cls-1" d="m77.41,13.46v47.38c.92.33,1.98.82,3.04,1.59.64.46,1.2.97,1.69,1.5,2.29,2.45,3.05,5.35,3.31,6.54v87.01h40.48V13.46H39.5"/>
    <path class="cls-1" d="m39.54,23.14h86.39"/>
    <path class="cls-1" d="m45.52,13.46c.36.96.68,2.07.86,3.34.35,2.42.1,4.59-.34,6.34"/>
    <path class="cls-1" d="m49.49,13.46c.37.96.68,2.07.87,3.34.35,2.43.09,4.59-.35,6.34"/>
    <path class="cls-1" d="m62.04,13.46c.37.96.69,2.07.87,3.34.35,2.42.1,4.59-.34,6.34"/>
    <path class="cls-1" d="m66.01,13.46c.37.96.69,2.07.87,3.34.35,2.42.1,4.59-.34,6.34"/>
    <path class="cls-1" d="m99.26,23.14c-.51-1.82-.84-4.14-.46-6.76.15-1.08.41-2.06.71-2.92"/>
    <path class="cls-1" d="m95.29,23.14c-.51-1.82-.84-4.14-.46-6.76.15-1.08.41-2.06.71-2.92"/>
    <path class="cls-1" d="m117.55,23.14c-.51-1.82-.84-4.14-.46-6.76.15-1.08.41-2.06.7-2.92"/>
    <path class="cls-1" d="m113.58,23.14c-.51-1.82-.85-4.14-.47-6.76.16-1.08.42-2.06.71-2.92"/>
    <path class="cls-1" d="m39.63,46.79c1.22-.08,2.16-.33,2.74-.53,4.78-1.57,6.88-5.89,7.5-7.18.23-.48.43-.95.59-1.4.62-1.69.88-3.48.9-5.28.02-3.08.05-6.17.07-9.26"/>
    <path class="cls-1" d="m112.09,23.14c.03,3.52.06,7.04.09,10.56.11,1.26.43,3.23,1.47,5.38.63,1.29,2.72,5.61,7.5,7.18.88.3,2.56.72,4.78.5"/>
    <line class="cls-1" x1="41.78" y1="152.65" x2="52.51" y2="152.65"/>
    <line class="cls-1" x1="54.46" y1="152.65" x2="65.19" y2="152.65"/>
    <line class="cls-1" x1="67.06" y1="152.65" x2="77.78" y2="152.65"/>
    <line class="cls-1" x1="87.74" y1="152.65" x2="98.47" y2="152.65"/>
    <line class="cls-1" x1="100.42" y1="152.65" x2="111.15" y2="152.65"/>
    <line class="cls-1" x1="113.01" y1="152.65" x2="123.74" y2="152.65"/>
    <line class="cls-1" x1="76.19" y1="155.78" x2="76.19" y2="139.58"/>
    <line class="cls-1" x1="76.19" y1="137.07" x2="76.19" y2="120.87"/>
    <line class="cls-1" x1="76.19" y1="118.63" x2="76.19" y2="102.43"/>
    <line class="cls-1" x1="76.19" y1="100.12" x2="76.19" y2="83.92"/>
    <path class="cls-1" d="m76.51,79.98c-.04-2.04-.07-4.5-.08-7.34,0-1.06,0-1.99.25-3.21.4-1.87,1.18-3.3,1.77-4.22"/>
    <path class="cls-1" d="m42.19,48.4c1.18-.27,3.2-.89,5.27-2.41,2.07-1.53,3.27-3.27,3.88-4.32"/>
    <path class="cls-1" d="m52.57,38.6c.5-1.27,1.01-2.9,1.32-4.83.39-2.48.32-4.62.15-6.22"/>
    <path class="cls-1" d="m122.82,48.66c-.95-.19-2.12-.51-3.39-1.06-1.49-.64-2.66-1.41-3.52-2.06"/>
    <path class="cls-1" d="m113.78,43.94c-.69-.68-1.5-1.6-2.26-2.79-.94-1.47-1.48-2.86-1.79-3.92"/>
    <path class="cls-1" d="m109.27,34.31c-.11-1.25-.19-2.6-.2-4.05,0-1.4.04-2.71.13-3.92"/>
    <circle class="cls-1" cx="82.32" cy="18.3" r="3.09"/>
  </g>
  <g>
    <path class="cls-1" d="m.25,0v165.44h31.96V0"/>
    <line class="cls-1" x1="24.16" y1="158.62" x2="32.21" y2="158.62"/>
    <line class="cls-1" x1="24.16" y1="152.91" x2="32.21" y2="152.91"/>
    <line class="cls-1" x1="24.16" y1="147.54" x2="32.21" y2="147.54"/>
    <line class="cls-1" x1="24.16" y1="141.8" x2="32.21" y2="141.8"/>
    <line class="cls-1" x1="24.16" y1="131.67" x2="32.21" y2="131.67"/>
    <line class="cls-1" x1="24.16" y1="126.23" x2="32.21" y2="126.23"/>
    <line class="cls-1" x1="24.16" y1="120.79" x2="32.21" y2="120.79"/>
    <line class="cls-1" x1="24.16" y1="115.35" x2="32.21" y2="115.35"/>
    <line class="cls-1" x1="24.16" y1="104.46" x2="32.21" y2="104.46"/>
    <line class="cls-1" x1="24.16" y1="99.48" x2="32.21" y2="99.48"/>
    <line class="cls-1" x1="24.16" y1="93.74" x2="32.21" y2="93.74"/>
    <line class="cls-1" x1="24.16" y1="88" x2="32.21" y2="88"/>
    <line class="cls-1" x1="24.16" y1="77.88" x2="32.21" y2="77.88"/>
    <line class="cls-1" x1="24.16" y1="72.16" x2="32.21" y2="72.16"/>
    <line class="cls-1" x1="24.16" y1="66.89" x2="32.21" y2="66.89"/>
    <line class="cls-1" x1="24.16" y1="61.33" x2="32.21" y2="61.33"/>
    <line class="cls-1" x1="24.16" y1="50.27" x2="32.21" y2="50.27"/>
    <line class="cls-1" x1="24.16" y1="45.04" x2="32.21" y2="45.04"/>
    <line class="cls-1" x1="24.16" y1="38.95" x2="32.21" y2="38.95"/>
    <line class="cls-1" x1="24.16" y1="33.87" x2="32.21" y2="33.87"/>
    <line class="cls-1" x1="19.7" y1="136.47" x2="32.21" y2="136.47"/>
    <line class="cls-1" x1="19.7" y1="109.9" x2="32.21" y2="109.9"/>
    <line class="cls-1" x1="19.7" y1="82.72" x2="32.21" y2="82.72"/>
    <line class="cls-1" x1="19.7" y1="55.4" x2="32.21" y2="55.4"/>
    <line class="cls-1" x1="19.7" y1="27.97" x2="32.21" y2="27.97"/>
  </g>
</svg>