<?xml version="1.0" encoding="UTF-8"?>
<svg id="Layer_3" data-name="Layer 3" xmlns="http://www.w3.org/2000/svg" width="138.94" height="170.5" viewBox="0 0 138.94 170.5">
  <defs>
    <style>
      .cls-1 {
        fill: none;
        stroke: #221f20;
        stroke-miterlimit: 10;
        stroke-width: .5px;
      }
    </style>
  </defs>
  <path class="cls-1" d="m7.89,61.17v92.43c-2.41,2.08-4.17,4.03-5.37,5.52-1.42,1.75-1.98,2.73-2.19,4-.35,2.12.5,3.78.67,4.09,1.12,2.09,3.03,2.86,3.52,3.04h69.92c.48-.03,2.13-.2,3.52-1.52,1.44-1.37,1.65-3.06,1.71-3.61.08-.72.09-1.99-.86-4-1.76-3.72-4.98-6.04-6.75-7.13V61.61c2-2.12,4-4.25,5.99-6.37.39-.37,1.26-1.29,1.62-2.76.1-.42.5-2.26-.57-4.09-1.3-2.22-3.68-2.62-4-2.66H5.38c-.57.11-1.58.38-2.57,1.14-.35.27-1.74,1.4-2.19,3.42-.28,1.27-.09,2.4.21,3.25s.8,1.57,1.43,2.18l5.63,5.44Z"/>
  <path class="cls-1" d="m72.06,153.84c-21.39-.13-42.78-.27-64.17-.4"/>
  <path class="cls-1" d="m72.14,61.52c-21.41-.09-42.83-.19-64.25-.29"/>
  <path class="cls-1" d="m7.89,148.91c2.61-.5,5.95-1.06,9.82-1.53,5.55-.68,10.31-.85,19.61-1.17,15.7-.53,13.24.1,19.76-.38,2.01-.15,6.13-.5,11.63,0,1.26.11,2.39.25,3.35.39"/>
  <path class="cls-1" d="m7.89,146.72c3.91-.77,8.15-1.46,12.67-1.99,6.19-.73,11.12-.89,15.97-1.07,4.14-.15,7.95-.19,12.69-.24,6.62-.08,6.12.02,9.33-.08,3.71-.12,5.23-.27,7.78-.09,2.27.17,4.21.52,5.73.87"/>
  <path class="cls-1" d="m7.89,141.84c1.91-.59,4.27-1.2,6.99-1.71,1.29-.24,3.99-.7,10.37-1.1,6.54-.41,7.28-.15,15.38-.49,5.49-.23,5.61-.36,11.96-.61,6.17-.23,4.12-.03,9.88-.24,2.88-.11,4.11-.19,5.98,0,1.32.13,2.53.34,3.61.61"/>
  <path class="cls-1" d="m7.89,139.34c1.91-.59,4.27-1.2,6.99-1.71,1.29-.24,3.99-.7,10.37-1.09,6.54-.41,7.28-.15,15.38-.49,5.49-.23,5.61-.37,11.96-.61,6.17-.24,4.12-.03,9.88-.25,2.88-.1,4.11-.18,5.98,0,1.32.13,2.53.35,3.61.61"/>
  <path class="cls-1" d="m7.89,136.24c1.91-.58,4.27-1.19,6.99-1.7,1.29-.24,3.99-.7,10.37-1.1,6.54-.41,7.28-.15,15.38-.48,5.49-.23,5.61-.37,11.96-.61,6.17-.24,4.12-.04,9.88-.25,2.88-.11,4.11-.18,5.98,0,1.32.13,2.53.34,3.61.61"/>
  <path class="cls-1" d="m7.89,134.34c1.91-.58,4.27-1.19,6.99-1.7,1.29-.24,3.99-.7,10.37-1.1,6.54-.41,7.28-.15,15.38-.49,5.49-.22,5.61-.36,11.96-.61,6.17-.23,4.12-.03,9.88-.24,2.88-.11,4.11-.18,5.98,0,1.32.13,2.53.34,3.61.61"/>
  <path class="cls-1" d="m7.89,130.1c1.91-.59,4.27-1.2,6.99-1.71,1.29-.24,3.99-.7,10.37-1.1,6.54-.41,7.28-.15,15.38-.49,5.49-.22,5.61-.36,11.96-.61,6.17-.23,4.12-.03,9.88-.24,2.88-.11,4.11-.18,5.98,0,1.32.13,2.53.34,3.61.61"/>
  <path class="cls-1" d="m7.89,128.28c1.91-.59,4.27-1.2,6.99-1.71,1.29-.24,3.99-.7,10.37-1.1,6.54-.41,7.28-.15,15.38-.49,5.49-.23,5.61-.36,11.96-.61,6.17-.23,4.12-.03,9.88-.24,2.88-.11,4.11-.18,5.98,0,1.32.13,2.53.34,3.61.61"/>
  <path class="cls-1" d="m7.89,122.82c1.93-.59,4.3-1.22,7.05-1.72,1.29-.24,3.99-.7,10.37-1.1,6.54-.41,7.28-.15,15.38-.49,5.48-.23,5.61-.37,11.96-.61,6.17-.23,4.12-.03,9.88-.24,2.88-.11,4.1-.19,5.98,0,1.3.13,2.48.34,3.55.59"/>
  <path class="cls-1" d="m7.89,120.32c1.93-.58,4.3-1.21,7.05-1.72,1.29-.24,3.99-.7,10.37-1.1,6.54-.41,7.28-.15,15.38-.48,5.48-.23,5.61-.37,11.96-.62,6.17-.23,4.12-.03,9.88-.24,2.88-.11,4.1-.18,5.98,0,1.3.13,2.48.34,3.55.59"/>
  <path class="cls-1" d="m7.89,115.52c1.93-.58,4.3-1.21,7.05-1.71,1.29-.24,3.99-.7,10.37-1.1,6.54-.41,7.28-.15,15.38-.49,5.48-.23,5.61-.37,11.96-.61,6.17-.24,4.12-.03,9.88-.25,2.88-.1,4.1-.18,5.98,0,1.3.13,2.48.34,3.55.6"/>
  <path class="cls-1" d="m7.89,113.84c1.93-.59,4.3-1.22,7.05-1.72,1.29-.24,3.99-.7,10.37-1.1,6.54-.41,7.28-.15,15.38-.49,5.48-.23,5.61-.37,11.96-.61,6.17-.23,4.12-.03,9.88-.24,2.88-.11,4.1-.19,5.98,0,1.3.13,2.48.34,3.55.59"/>
  <path class="cls-1" d="m7.89,108.24c1.93-.58,4.3-1.21,7.05-1.72,1.29-.24,3.99-.7,10.37-1.1,6.54-.4,7.28-.15,15.38-.48,5.48-.23,5.61-.37,11.96-.61,6.17-.24,4.12-.04,9.88-.25,2.88-.1,4.1-.18,5.98,0,1.3.13,2.48.34,3.55.59"/>
  <path class="cls-1" d="m7.89,99.41c2.01-.63,4.56-1.32,7.55-1.87,1.29-.24,3.99-.7,10.37-1.1,6.54-.41,7.29-.15,15.38-.49,5.49-.23,5.62-.37,11.96-.61,6.17-.23,4.12-.03,9.88-.24,2.89-.11,4.11-.19,5.98,0,1.1.11,2.12.27,3.05.48"/>
  <path class="cls-1" d="m7.89,106.7c2.01-.63,4.56-1.32,7.55-1.87,1.29-.24,3.99-.7,10.37-1.1,6.54-.41,7.29-.15,15.38-.49,5.49-.23,5.62-.37,11.96-.61,6.17-.23,4.12-.03,9.88-.24,2.89-.11,4.11-.19,5.98,0,1.1.11,2.12.27,3.05.48"/>
  <path class="cls-1" d="m7.89,97.75c2.01-.63,4.56-1.32,7.55-1.87,1.29-.24,3.99-.7,10.37-1.1,6.54-.41,7.29-.15,15.38-.49,5.49-.23,5.62-.37,11.96-.61,6.17-.23,4.12-.03,9.88-.24,2.89-.11,4.11-.19,5.98,0,1.1.11,2.12.27,3.05.48"/>
  <path class="cls-1" d="m7.89,91.28c2.01-.63,4.56-1.32,7.55-1.87,1.29-.24,3.99-.7,10.37-1.1,6.54-.41,7.29-.15,15.38-.49,5.49-.23,5.62-.37,11.96-.61,6.17-.23,4.12-.03,9.88-.24,2.89-.11,4.11-.19,5.98,0,1.1.11,2.12.27,3.05.48"/>
  <path class="cls-1" d="m7.89,89.25c2.01-.63,4.56-1.32,7.55-1.88,1.29-.24,3.99-.7,10.37-1.1,6.54-.41,7.29-.15,15.38-.49,5.49-.23,5.62-.36,11.96-.61,6.17-.23,4.12-.03,9.88-.24,2.89-.11,4.11-.18,5.98,0,1.1.11,2.12.27,3.05.48"/>
  <path class="cls-1" d="m7.89,84.25c2.01-.63,4.56-1.32,7.55-1.87,1.29-.24,3.99-.7,10.37-1.1,6.54-.41,7.29-.15,15.38-.49,5.49-.23,5.62-.37,11.96-.61,6.17-.23,4.12-.03,9.88-.24,2.89-.11,4.11-.19,5.98,0,1.1.11,2.12.27,3.05.48"/>
  <path class="cls-1" d="m7.89,82.35c2.01-.62,4.56-1.31,7.55-1.87,1.29-.24,3.99-.7,10.37-1.1,6.54-.41,7.29-.15,15.38-.48,5.49-.23,5.62-.37,11.96-.62,6.17-.23,4.12-.03,9.88-.24,2.89-.11,4.11-.18,5.98,0,1.1.11,2.12.27,3.05.48"/>
  <path class="cls-1" d="m7.89,78.14c2.01-.63,4.56-1.32,7.55-1.87,1.29-.24,3.99-.7,10.37-1.1,6.54-.41,7.29-.15,15.38-.49,5.49-.23,5.62-.37,11.96-.61,6.17-.23,4.12-.03,9.88-.24,2.89-.11,4.11-.19,5.98,0,1.1.11,2.12.27,3.05.48"/>
  <path class="cls-1" d="m7.89,76.35c2.01-.62,4.56-1.31,7.55-1.87,1.29-.24,3.99-.7,10.37-1.1,6.54-.41,7.29-.15,15.38-.48,5.49-.23,5.62-.37,11.96-.61,6.17-.24,4.12-.04,9.88-.25,2.89-.11,4.11-.18,5.98,0,1.1.11,2.12.27,3.05.48"/>
  <path class="cls-1" d="m7.89,71.74c2.15-.72,5.11-1.59,8.69-2.25,1.29-.24,4-.7,10.37-1.1,6.54-.41,7.29-.15,15.38-.49,5.49-.23,5.62-.37,11.96-.61,6.17-.23,4.13-.03,9.89-.24,2.88-.11,4.1-.19,5.98,0,.66.06,1.3.15,1.9.26"/>
  <path class="cls-1" d="m7.89,69.24c2.15-.72,5.11-1.58,8.69-2.25,1.29-.24,4-.7,10.37-1.1,6.54-.4,7.29-.15,15.38-.48,5.49-.23,5.62-.37,11.96-.61,6.17-.24,4.13-.03,9.89-.25,2.88-.1,4.1-.18,5.98,0,.66.06,1.3.15,1.9.26"/>
  <path class="cls-1" d="m72.06,96.33c5.88-7.74,15.18-12.74,25.66-12.74,17.78,0,32.19,14.42,32.19,32.2s-14.41,32.2-32.19,32.2c-10.48,0-19.78-5-25.66-12.74"/>
  <circle class="cls-1" cx="97.51" cy="115.52" r="21.49"/>
  <circle class="cls-1" cx="92.77" cy="111.7" r="3.49"/>
  <circle class="cls-1" cx="102.44" cy="111.7" r="3.49"/>
  <circle class="cls-1" cx="102.44" cy="121.09" r="3.49"/>
  <circle class="cls-1" cx="92.77" cy="121.09" r="3.49"/>
  <path class="cls-1" d="m135.88,99.53c-1.62-1.67-3.55-3.63-5.7-5.8-.68-.69-1.35-1.36-2-2.02-8.5-8.53-14.79-14.64-16.38-16.18-6.23-6.07-28.23-28.67-53.54-54.72"/>
  <path class="cls-1" d="m50.37,12.67h-.01"/>
  <path class="cls-1" d="m138.65,98.66c-2.36-2.55-5.13-5.56-8.25-8.92-1.37-1.5-2.82-3.07-4.33-4.7-17.31-18.72-24.97-26.94-34.41-37.16-4.4-4.76-18.88-20.05-30.26-32.21"/>
  <path class="cls-1" d="m135.87,99.52h.01c.19.16.35.29.5.39.9.64,2.21.12,2.31-.99.02-.22-.18-.42-.18-.42"/>
  <line class="cls-1" x1="130.4" y1="89.74" x2="130.39" y2="89.73"/>
  <path class="cls-1" d="m61.41,15.68s-.01,0-.01-.01c-.72-.88-1.64-2.22-2.73-3.44-1.22-1.36-1.84-2.01-3.49-3.11-1.9-1.08-3.77-1.61-4.7-.77-.89.81-.87,2.42-.12,4.3h.01c.87,1.6,1.74,2.46,3.11,3.87,1.69,1.75,3.7,3.23,4.78,4.28"/>
  <ellipse class="cls-1" cx="56.51" cy="14.89" rx="1.21" ry="6.27" transform="translate(4.84 42.19) rotate(-42.61)"/>
  <path class="cls-1" d="m126.31,46.02c-1.55.51-13.04,4.05-21.95-2.33-4.26-3.05-6.62-7.42-7.22-8.57-2.23-4.23-2.77-8.1-3.05-10.27-.54-4.16.21-4.34-.21-8.71-.45-4.62-.87-9.09-4.18-12.4-.51-.51-3.3-3.2-7.44-3.47-2.79-.18-4.9.84-7.72,2.34-6.68,3.56-10.03,5.34-13.38,7.93-.81.62-1.58,1.25-2.33,1.87-.56.48-1.1.96-1.63,1.43-.62.55-1.21,1.1-1.78,1.64"/>
  <path class="cls-1" d="m24.67,61.31c1.31-1.61,2.92-3.65,4.72-6.05,1.93-2.58,3.15-4.2,4.45-6.26.77-1.21,1.38-2.27,1.9-3.27,1.19-2.27,1.97-4.22,3.28-6.97,0,0,2.97-6.19,6.62-11.68,1.19-1.78,3.91-5.68,8.28-10.11"/>
</svg>